Coordinates
version=1
nRows=16
nColumns=36
inDegrees=yes

Units are S.I. units (second, meters, Newtons, ...)
If the header above contains a line with 'inDegrees', this indicates whether rotational values are in degrees (yes) or radians (no).

endheader
time	pelvis_tilt	pelvis_list	pelvis_rotation	pelvis_tx	pelvis_ty	pelvis_tz	hip_flexion_r	hip_adduction_r	hip_rotation_r	knee_angle_r	knee_angle_r_beta	ankle_angle_r	subtalar_angle_r	mtp_angle_r	hip_flexion_l	hip_adduction_l	hip_rotation_l	knee_angle_l	knee_angle_l_beta	ankle_angle_l	subtalar_angle_l	mtp_angle_l	lumbar_extension	lumbar_bending	lumbar_rotation	arm_flex_r	arm_add_r	arm_rot_r	elbow_flex_r	pro_sup_r	arm_flex_l	arm_add_l	arm_rot_l	elbow_flex_l	pro_sup_l
      2.31666670	     -8.90446040	      1.94310724	    -11.14294841	      0.67280334	      1.37082412	      0.02234063	     22.06199278	     -4.29181956	     -8.40813096	     13.35708196	      0.23312506	    -19.47556242	      3.67733336	     -7.49999987	     21.19748107	     -2.54024390	     -4.02358423	     12.39962483	      0.21641428	    -26.25927335	     -4.91353343	     -7.49999987	     -6.02986815	      1.53571674	     -1.52220913	    -26.77761669	    -32.81915616	      2.37773251	     19.38238535	     70.93609939	    -13.49360264	    -16.34893291	      6.21009515	     47.47373119	     83.87507582
      2.33333330	     -8.50824971	      2.05325841	    -10.43738445	      0.70026604	      1.34329393	      0.02743439	     21.13533127	     -4.61519194	     -8.51121627	     11.19560497	      0.19540017	    -19.46167135	      5.31275906	     -7.49999987	     21.07313048	     -2.14709454	     -3.95602320	     10.92219007	      0.19062818	    -26.82121493	     -3.55857956	     -7.49999987	     -6.17521560	      1.08781664	     -1.18729334	    -34.54384283	    -33.25519108	      2.38172536	     14.85287751	     71.38916288	    -19.91730281	    -18.72482744	      8.03536178	     51.77872194	     84.97252470
      2.35000000	     -7.91584019	      2.41340937	    -10.24929500	      0.71967996	      1.30524578	      0.02860574	     21.17186922	     -5.10152615	     -8.35166941	     10.61096030	      0.18519619	    -19.01884464	      5.71047187	     -7.49999987	     20.89653197	     -1.53216786	     -3.63672847	     10.76031413	      0.18780291	    -25.99808322	     -2.88405157	     -7.49999987	     -6.71448134	      0.71303426	     -0.11039499	    -43.50297936	    -32.84577986	      2.71252085	     11.13527125	     72.39804790	    -26.20171746	    -21.90270857	     11.27504502	     57.58218907	     87.02188973
      2.36666670	     -7.36768602	      2.17380255	    -10.31580290	      0.74319436	      1.26689488	      0.04412597	     21.34902246	     -4.64652984	     -8.16572557	     10.51365973	      0.18349798	    -19.64027129	      4.58557018	     -7.49999987	     20.35839499	     -1.78583501	     -2.89262468	     10.27391285	      0.17931361	    -25.17122263	     -2.01252053	     -7.49999987	     -5.08718919	     -0.62762551	     -9.43965270	    -25.50369696	    -52.76059887	    126.81044491	     42.17430372	      9.62225874	    -41.43785535	    -17.28238766	     -2.43361952	     64.16950409	    101.00823732
      2.38333330	     -7.05426116	      2.21608604	    -10.35523180	      0.76307749	      1.23293797	      0.04490089	     21.11302483	     -4.49755133	     -8.39116907	      9.60711558	      0.16767580	    -20.54649285	      4.57442547	     -7.49999987	     20.43375969	     -1.80471709	     -3.23622786	      9.75797814	      0.17030885	    -25.92956934	     -1.74568013	     -7.49999987	     -4.59726109	     -1.14218681	     -9.23420716	    -32.11095389	    -53.05853982	    133.39690643	     46.22163917	     12.90302790	    -47.67309023	    -17.60294909	     -4.33333923	     67.51866163	    106.86308450
      2.40000000	     -6.61199303	      2.61142788	    -10.65674613	      0.78427670	      1.18785670	      0.04023366	     21.52587667	     -4.94894533	     -8.48549019	      9.72055869	      0.16965575	    -20.86255580	      5.32806371	     -7.49999987	     20.89755983	     -1.31118766	     -3.38529165	     10.79631051	      0.18843117	    -25.23651692	     -2.17854712	     -7.49999987	     -4.61916117	     -1.88399621	     -8.86591642	    -38.35207806	    -51.96794349	    137.34143781	     46.02074516	     14.24610747	    -53.32231793	    -16.17562129	     -6.69527017	     68.71067284	    108.44312916
      2.41666670	     -6.52404819	      2.36159141	    -10.03354545	      0.81417288	      1.13843393	      0.04841013	     21.87987075	     -4.78079160	     -8.89966244	     10.36135281	      0.18083972	    -21.05268483	      4.82232151	     -7.49999987	     21.47220988	     -1.34075282	     -2.71231974	     11.75073970	      0.20508910	    -24.10545522	     -2.16686423	     -7.49999987	     -4.36892428	     -1.79110304	     -7.71982882	    -47.23336331	    -49.61773652	    132.64995112	     43.24920038	     14.75372176	    -56.54437774	    -16.03985689	     -7.35811088	     67.38176275	    110.73341918
      2.43333330	     -6.40799774	      2.32045430	     -9.35444440	      0.83765148	      1.09676392	      0.05761936	     21.78010211	     -4.67609235	     -9.08742728	     10.62215727	      0.18539162	    -21.37643657	      4.52346892	     -7.49999987	     21.88411274	     -1.31084799	     -2.20513387	     12.18304902	      0.21263432	    -24.64536589	     -2.42046737	     -7.49999987	     -4.34610563	     -2.34142260	     -4.92915952	    -52.54206931	    -43.65245634	    129.80407725	     39.74351734	     14.10439952	    -55.60350824	    -17.40891051	     -5.79545128	     64.16837707	    109.47001326
      2.45000000	     -5.88867185	      2.01093382	     -9.25648747	      0.84802475	      1.04470004	      0.06526919	     22.58060390	     -4.27287306	     -8.41217002	     12.87700361	      0.22474611	    -20.23240305	      4.58865534	     -7.49999987	     22.94359499	     -1.70708271	     -1.66136821	     14.41109531	      0.25152106	    -24.56632847	     -3.22325269	     -7.49999987	     -5.13585132	     -2.59011620	     -1.77678756	    -54.07155745	    -37.31383975	    129.93726962	     36.04140702	     13.48259763	    -51.50465768	    -19.20336271	     -3.30573496	     60.06754041	    107.24102391
      2.46666670	     -5.47586491	      1.45892530	     -9.70634586	      0.86040717	      0.99755095	      0.06682759	     23.96200716	     -3.76682612	     -7.44932758	     17.13306435	      0.29902838	    -15.33869769	      3.52533611	     -7.49999987	     24.91912506	     -2.51800694	     -1.09450685	     19.53448982	      0.34094117	    -20.86294654	     -5.57136631	     -7.49999987	     -6.69400178	     -2.90756221	     -1.36697674	    -49.58440825	    -36.52166853	    128.20087850	     36.52245239	     17.29900225	    -46.81042623	    -17.73926098	     -2.71749071	     56.50949701	    102.50885024
      2.48333330	     -5.27526494	      0.86543078	     -9.80424039	      0.89344299	      0.95882301	      0.07151724	     25.86724161	     -3.30652332	     -6.34425870	     25.80809392	      0.45043621	     -6.10682290	      0.38075418	     -7.49999987	     26.85404089	     -2.88590984	      0.94368417	     27.92958888	      0.48746328	    -10.69393795	     -8.24590864	     -7.49999987	     -6.35821092	     -0.96648109	      7.59718338	    -58.68641003	    -14.68591356	    -48.14970740	      2.18975794	    106.70429524	    -31.94603406	    -22.12439003	     12.60204768	     42.10457249	     92.89915470
      2.50000000	     -4.96746826	      0.64957699	     -9.50919639	      0.91381938	      0.91478482	      0.07275162	     29.74722398	     -3.28368169	     -4.25793472	     38.85045954	      0.67806843	      5.11138593	     -3.15996445	     -7.49999987	     31.05689779	     -2.52962717	      2.88854629	     41.08264912	      0.71702749	      1.49299844	    -10.35903307	     -7.49999987	     -5.71450172	     -1.88358917	      8.83265227	    -51.41207932	    -12.72874401	    -40.69328977	      2.84263637	    101.59627997	    -23.38879599	    -18.50562643	     12.95585306	     29.21097740	     88.09582688
      2.51666670	     -4.73830529	      0.88003266	     -9.55817211	      0.92077557	      0.87908672	      0.07428103	     35.76379795	     -3.14245858	     -1.70445916	     53.49374549	      0.93364199	     14.95571877	     -5.83268807	     -7.49999987	     37.15899667	     -1.63305987	      4.35004220	     55.73098969	      0.97268927	     12.82471952	    -11.11312581	     -7.49999987	     -5.93320528	     -3.17323245	      6.19367465	    -41.13744368	    -13.64353040	    -28.93459074	      5.76248113	     96.04451358	    -16.37499591	    -13.88028852	      8.23750485	     20.17287598	     84.03965545
      2.53333330	     -3.48805391	      1.02525469	     -9.67567292	      0.92088678	      0.85051548	      0.07876836	     40.05911431	     -2.66492863	      0.48105902	     65.42706008	      1.14191762	     22.00728986	     -7.34446816	     -7.49999987	     41.54566433	     -0.63578935	      5.34416309	     68.01365074	      1.18706214	     20.29056624	    -12.11279399	     -7.49999987	     -7.73072295	     -4.18621449	      2.70570153	    -30.12076510	    -14.63796540	     -6.51920958	     10.58465921	     73.70845124	    -11.06375610	    -12.04908535	      5.75420324	     17.93907841	     77.27817913
      2.55000000	     -2.47891314	      0.72807951	    -10.05304175	      0.92179660	      0.82033471	      0.07610070	     43.24831331	     -1.89137935	      1.86534869	     74.58723886	      1.30179290	     27.09841266	     -7.92547921	     -7.49999987	     44.38820233	      0.03038720	      6.26607392	     77.17361775	      1.34693373	     25.48287666	    -12.76953727	     -7.49999987	    -11.22836250	     -3.68769011	     -0.79991820	    -18.10068647	    -15.67396110	     10.31593718	     15.50924901	     61.36877126	     -4.88565987	    -10.44310084	      4.09023385	     17.53468577	     72.51429643
      2.56666670	     -1.03766992	      0.20980166	    -10.23655491	      0.92376639	      0.80802708	      0.07873345	     44.14333341	     -1.00802879	      2.60706693	     80.14875949	      1.39885974	     30.20245102	     -8.00091310	     -7.49999987	     44.75456951	      0.61331288	      7.13348974	     82.16547752	      1.43405811	     28.49781835	    -13.27578461	     -7.49999987	    -15.67661599	     -2.40766748	     -2.06805599	     -7.03566669	    -13.95060436	     12.11607740	     17.99535964	     61.58982929	      2.28474523	     -9.74547172	      4.57683266	     17.52673947	     72.39542200
